<svg width="32" height="32" viewBox="0 0 32 32" fill="none" xmlns="http://www.w3.org/2000/svg">
<rect width="32" height="32" rx="4" fill="black"/>
<path d="M22.4 5H9.6C8.71634 5 8 5.71634 8 6.6V25.8C8 26.6837 8.71634 27.4 9.6 27.4H22.4C23.2837 27.4 24 26.6837 24 25.8V6.6C24 5.71634 23.2837 5 22.4 5Z" fill="#6366F1" stroke="#6366F1" stroke-opacity="0.6" stroke-width="2"/>
<path d="M21.7143 6.14282H10.2857C9.65456 6.14282 9.14288 6.6545 9.14288 7.28568V25.1143C9.14288 25.7454 9.65456 26.2571 10.2857 26.2571H21.7143C22.3455 26.2571 22.8572 25.7454 22.8572 25.1143V7.28568C22.8572 6.6545 22.3455 6.14282 21.7143 6.14282Z" fill="#09090B" fill-opacity="0.1" stroke="white" stroke-opacity="0.1"/>
<path d="M15.148 17.8482V17.7274C15.1504 17.3131 15.187 16.9829 15.2581 16.7367C15.3315 16.4904 15.438 16.2916 15.5777 16.1401C15.7174 15.9886 15.8854 15.8512 16.0819 15.7281C16.2287 15.6334 16.3601 15.5352 16.4761 15.4334C16.5921 15.3316 16.6844 15.2191 16.7531 15.096C16.8218 14.9706 16.8561 14.8309 16.8561 14.677C16.8561 14.5136 16.817 14.3704 16.7389 14.2473C16.6608 14.1242 16.5554 14.0295 16.4228 13.9632C16.2926 13.8969 16.1482 13.8638 15.9896 13.8638C15.8357 13.8638 15.6901 13.8981 15.5528 13.9668C15.4155 14.0331 15.3031 14.1325 15.2155 14.2651C15.1279 14.3953 15.0805 14.5574 15.0734 14.7516H13.6245C13.6364 14.2781 13.75 13.8875 13.9655 13.5797C14.1809 13.2696 14.4662 13.0387 14.8213 12.8872C15.1764 12.7333 15.5682 12.6564 15.9967 12.6564C16.4678 12.6564 16.8845 12.7345 17.2467 12.8908C17.6089 13.0447 17.893 13.2684 18.099 13.5619C18.3049 13.8555 18.4079 14.2094 18.4079 14.6237C18.4079 14.9007 18.3618 15.1469 18.2694 15.3624C18.1795 15.5754 18.0528 15.7648 17.8895 15.9306C17.7261 16.0939 17.5332 16.2419 17.3106 16.3744C17.1236 16.4857 16.9697 16.6017 16.849 16.7225C16.7306 16.8432 16.6418 16.9829 16.5826 17.1415C16.5258 17.3001 16.4962 17.4954 16.4939 17.7274V17.8482H15.148ZM15.8511 20.1209C15.6144 20.1209 15.412 20.038 15.2439 19.8723C15.0781 19.7042 14.9965 19.503 14.9988 19.2686C14.9965 19.0366 15.0781 18.8378 15.2439 18.672C15.412 18.5063 15.6144 18.4235 15.8511 18.4235C16.076 18.4235 16.2737 18.5063 16.4442 18.672C16.6146 18.8378 16.701 19.0366 16.7034 19.2686C16.701 19.4249 16.6596 19.5681 16.5791 19.6983C16.501 19.8261 16.398 19.9291 16.2701 20.0073C16.1423 20.083 16.0026 20.1209 15.8511 20.1209Z" fill="white"/>
</svg>
