<svg width="512" height="512" viewBox="0 0 512 512" fill="none" xmlns="http://www.w3.org/2000/svg">
<rect width="512" height="512" rx="19" fill="black"/>
<path d="M194.597 103.9L48.2886 143.104C38.1881 145.81 32.194 156.192 34.9004 166.293L93.7053 385.755C96.4117 395.856 106.794 401.85 116.894 399.143L263.203 359.94C273.303 357.234 279.297 346.852 276.591 336.751L217.786 117.289C215.08 107.188 204.698 101.194 194.597 103.9Z" fill="#6366F1" stroke="#6366F1" stroke-opacity="0.6" stroke-width="2"/>
<path d="M190.259 119.064L59.6267 154.067C52.4121 156 48.1306 163.416 50.0638 170.63L104.668 374.417C106.601 381.632 114.017 385.913 121.232 383.98L251.864 348.977C259.079 347.044 263.361 339.628 261.427 332.414L206.823 128.627C204.89 121.412 197.474 117.131 190.259 119.064Z" fill="#09090B" fill-opacity="0.1" stroke="white" stroke-opacity="0.1"/>
<path d="M149.402 270.195L149.002 268.702C147.659 263.572 147.019 259.367 147.081 256.088C147.173 252.801 147.831 249.989 149.056 247.653C150.281 245.317 151.905 243.062 153.926 240.889C155.427 239.232 156.726 237.582 157.823 235.939C158.92 234.296 159.689 232.6 160.13 230.851C160.563 229.072 160.525 227.231 160.015 225.329C159.474 223.309 158.517 221.668 157.143 220.404C155.769 219.141 154.153 218.319 152.294 217.939C150.465 217.551 148.569 217.619 146.608 218.145C144.706 218.655 143.019 219.561 141.549 220.865C140.071 222.14 139.01 223.741 138.366 225.671C137.715 227.571 137.666 229.733 138.222 232.156L120.308 236.956C118.886 231.063 118.997 225.857 120.641 221.338C122.277 216.79 125.039 212.991 128.928 209.941C132.809 206.862 137.398 204.613 142.696 203.193C148.521 201.633 153.931 201.218 158.927 201.95C163.916 202.653 168.169 204.477 171.688 207.425C175.207 210.372 177.653 214.407 179.026 219.529C179.943 222.954 180.188 226.151 179.76 229.12C179.354 232.053 178.415 234.814 176.945 237.404C175.466 239.965 173.571 242.433 171.259 244.81C169.315 246.805 167.797 248.749 166.704 250.642C165.64 252.527 165.005 254.548 164.799 256.705C164.622 258.854 164.903 261.367 165.643 264.244L166.043 265.736L149.402 270.195ZM165.625 295.965C162.698 296.75 159.921 296.396 157.294 294.904C154.688 293.375 153.011 291.157 152.264 288.252C151.466 285.391 151.817 282.662 153.317 280.064C154.846 277.458 157.075 275.763 160.002 274.979C162.782 274.233 165.501 274.603 168.157 276.087C170.814 277.571 172.541 279.744 173.339 282.605C173.827 284.544 173.79 286.452 173.226 288.329C172.683 290.168 171.751 291.783 170.429 293.172C169.1 294.532 167.498 295.463 165.625 295.965Z" fill="white"/>
<path d="M323.472 99H172.003C161.546 99 153.069 107.477 153.069 117.934V345.138C153.069 355.595 161.546 364.072 172.003 364.072H323.472C333.929 364.072 342.406 355.595 342.406 345.138V117.934C342.406 107.477 333.929 99 323.472 99Z" fill="#6366F1" stroke="#6366F1" stroke-opacity="0.6" stroke-width="2"/>
<path d="M315.358 112.524H180.117C172.648 112.524 166.593 118.579 166.593 126.048V337.024C166.593 344.493 172.648 350.548 180.117 350.548H315.358C322.827 350.548 328.882 344.493 328.882 337.024V126.048C328.882 118.579 322.827 112.524 315.358 112.524Z" fill="#09090B" fill-opacity="0.1" stroke="white" stroke-opacity="0.1"/>
<path d="M236.778 247.931V246.386C236.808 241.083 237.278 236.855 238.187 233.704C239.126 230.552 240.49 228.007 242.278 226.067C244.065 224.128 246.217 222.371 248.732 220.795C250.611 219.583 252.293 218.325 253.778 217.022C255.262 215.719 256.444 214.28 257.323 212.704C258.202 211.098 258.641 209.31 258.641 207.34C258.641 205.249 258.141 203.416 257.141 201.84C256.141 200.264 254.793 199.052 253.096 198.204C251.429 197.355 249.581 196.931 247.55 196.931C245.581 196.931 243.717 197.371 241.959 198.249C240.202 199.098 238.762 200.371 237.641 202.067C236.52 203.734 235.914 205.81 235.823 208.295H217.278C217.429 202.234 218.884 197.234 221.641 193.295C224.399 189.325 228.05 186.371 232.596 184.431C237.141 182.461 242.156 181.477 247.641 181.477C253.671 181.477 259.005 182.477 263.641 184.477C268.278 186.446 271.914 189.31 274.55 193.067C277.187 196.825 278.505 201.355 278.505 206.658C278.505 210.204 277.914 213.355 276.732 216.113C275.581 218.84 273.959 221.264 271.868 223.386C269.778 225.477 267.308 227.371 264.459 229.067C262.065 230.492 260.096 231.977 258.55 233.522C257.035 235.067 255.899 236.855 255.141 238.886C254.414 240.916 254.035 243.416 254.005 246.386V247.931H236.778ZM245.778 277.022C242.747 277.022 240.156 275.961 238.005 273.84C235.884 271.689 234.838 269.113 234.868 266.113C234.838 263.143 235.884 260.598 238.005 258.477C240.156 256.355 242.747 255.295 245.778 255.295C248.656 255.295 251.187 256.355 253.368 258.477C255.55 260.598 256.656 263.143 256.687 266.113C256.656 268.113 256.126 269.946 255.096 271.613C254.096 273.249 252.778 274.567 251.141 275.567C249.505 276.537 247.717 277.022 245.778 277.022Z" fill="white"/>
<path d="M464.711 151.218L318.403 112.015C308.302 109.308 297.92 115.303 295.214 125.403L236.409 344.866C233.703 354.966 239.697 365.348 249.797 368.055L396.106 407.258C406.206 409.964 416.588 403.97 419.295 393.87L478.1 174.407C480.806 164.307 474.812 153.925 464.711 151.218Z" fill="#6366F1" stroke="#6366F1" stroke-opacity="0.6" stroke-width="2"/>
<path d="M453.373 162.181L322.741 127.178C315.526 125.245 308.11 129.527 306.177 136.741L251.573 340.528C249.639 347.743 253.921 355.158 261.136 357.092L391.768 392.094C398.983 394.028 406.398 389.746 408.332 382.531L462.936 178.745C464.869 171.53 460.588 164.114 453.373 162.181Z" fill="#09090B" fill-opacity="0.1" stroke="white" stroke-opacity="0.1"/>
<path d="M342.424 272.636L342.824 271.143C344.226 266.029 345.774 262.067 347.468 259.258C349.191 256.457 351.167 254.352 353.396 252.941C355.625 251.53 358.158 250.39 360.995 249.519C363.123 248.834 365.073 248.055 366.845 247.18C368.616 246.306 370.131 245.221 371.387 243.927C372.652 242.603 373.539 240.99 374.049 239.087C374.59 237.067 374.581 235.167 374.023 233.386C373.465 231.605 372.476 230.086 371.057 228.827C369.667 227.576 367.991 226.688 366.03 226.162C364.127 225.652 362.213 225.594 360.288 225.988C358.371 226.353 356.651 227.21 355.129 228.559C353.615 229.879 352.492 231.727 351.761 234.103L333.847 229.303C335.562 223.489 338.261 219.035 341.945 215.944C345.636 212.823 349.927 210.914 354.82 210.218C359.72 209.491 364.82 209.838 370.118 211.258C375.942 212.819 380.835 215.165 384.796 218.297C388.764 221.399 391.536 225.106 393.11 229.418C394.684 233.73 394.784 238.447 393.412 243.57C392.494 246.994 391.108 249.885 389.253 252.243C387.434 254.579 385.241 256.502 382.672 258.009C380.112 259.488 377.236 260.678 374.045 261.58C371.364 262.336 369.077 263.26 367.185 264.353C365.321 265.454 363.761 266.887 362.503 268.652C361.275 270.425 360.262 272.741 359.465 275.602L359.065 277.095L342.424 272.636ZM343.588 303.065C340.661 302.281 338.433 300.586 336.904 297.98C335.412 295.353 335.069 292.594 335.874 289.704C336.614 286.828 338.282 284.64 340.88 283.14C343.508 281.648 346.285 281.294 349.212 282.078C351.993 282.823 354.162 284.503 355.721 287.116C357.279 289.73 357.689 292.475 356.949 295.351C356.402 297.275 355.416 298.909 353.989 300.252C352.6 301.574 350.985 302.506 349.146 303.048C347.314 303.562 345.462 303.567 343.588 303.065Z" fill="white"/>
</svg>
